# xmcd
#
# Track frame offsets:
#  150
#  16282
#  33025
#
# Disc length: 634 seconds
#
# Revision: 1
# Processed by: cddbd v1.5.1PL2 Copyright (c) Steve Scherf et al.
# Submitted via: Collectorz.com_Music_Collector 6.11
#
DISCID=14027803
DTITLE=Texas - Thrill Has Gone (MaxiCD)
DYEAR=1989
DGENRE=General Pop
TTITLE0=Thrill Has Gone
TTITLE1=Nowhere Left To Hide
TTITLE2=Dimples
EXTD=
EXTT0=
EXTT1=
EXTT2=
PLAYORDER=
